<svg width="360" height="96" viewBox="0 0 360 96" fill="none" xmlns="http://www.w3.org/2000/svg" role="img" aria-labelledby="logoTitle logoDesc">
  <title id="logoTitle">Logo Brasaland</title>
  <desc id="logoDesc">Logo de Brasaland con parrilla, brasas y palabra de marca.</desc>
  <defs>
    <linearGradient id="flameGrad" x1="0" y1="0" x2="1" y2="1">
      <stop offset="0" stop-color="#FDE68A"/>
      <stop offset="0.5" stop-color="#F59E0B"/>
      <stop offset="1" stop-color="#DC2626"/>
    </linearGradient>
    <linearGradient id="emberGrad" x1="0" y1="0" x2="1" y2="1">
      <stop offset="0" stop-color="#F59E0B"/>
      <stop offset="1" stop-color="#B91C1C"/>
    </linearGradient>
  </defs>

  <g transform="translate(8 10)">
    <rect x="0" y="16" width="76" height="56" rx="12" fill="#111827" stroke="#374151" stroke-width="2"/>
    <path d="M14 30H62" stroke="#9CA3AF" stroke-width="2" stroke-linecap="round"/>
    <path d="M10 38H66" stroke="#9CA3AF" stroke-width="2" stroke-linecap="round"/>
    <path d="M14 46H62" stroke="#9CA3AF" stroke-width="2" stroke-linecap="round"/>
    <path d="M10 54H66" stroke="#9CA3AF" stroke-width="2" stroke-linecap="round"/>

    <ellipse cx="26" cy="62" rx="8" ry="5" fill="url(#emberGrad)"/>
    <ellipse cx="40" cy="61" rx="9" ry="6" fill="url(#emberGrad)"/>
    <ellipse cx="54" cy="62" rx="7" ry="5" fill="url(#emberGrad)"/>

    <path d="M36 20C31 13 32 7 37 2C39 8 44 12 44 18C44 23 40 27 36 27C33 27 31 24 31 21C31 18 33 16 35 15C34 16 33 18 33 20C33 22 34 23 36 23C38 23 40 21 40 18C40 14 36 11 36 6C33 10 33 14 36 20Z" fill="url(#flameGrad)"/>
  </g>

  <g transform="translate(98 24)">
    <text x="0" y="30" fill="#FBBF24" font-size="34" font-family="Montserrat, Poppins, Arial, sans-serif" font-weight="800" letter-spacing="2">BRASALAND</text>
    <text x="0" y="52" fill="#D1D5DB" font-size="12" font-family="Montserrat, Poppins, Arial, sans-serif" font-weight="600" letter-spacing="1.2">COCINA A LA BRASA</text>
  </g>
</svg>
